<svg width="37" height="51" viewBox="0 0 37 51" fill="none" xmlns="http://www.w3.org/2000/svg">
<path d="M18.2 0C13.3748 0.00555796 8.74876 1.92484 5.3368 5.3368C1.92484 8.74875 0.00555796 13.3748 0 18.2C0 30.655 16.288 48.939 16.981 49.711C17.1347 49.8822 17.3227 50.0191 17.5328 50.1128C17.743 50.2065 17.9704 50.2549 18.2005 50.2549C18.4306 50.2549 18.658 50.2065 18.8682 50.1128C19.0783 50.0191 19.2663 49.8822 19.42 49.711C20.113 48.939 36.401 30.654 36.401 18.2C36.3954 13.3746 34.476 8.74843 31.0639 5.33644C27.6517 1.92446 23.0254 0.00529334 18.2 0V0ZM18.2 27.358C16.389 27.358 14.6186 26.821 13.1127 25.8148C11.6069 24.8087 10.4332 23.3786 9.74014 21.7055C9.04703 20.0323 8.86564 18.1912 9.21888 16.4149C9.57212 14.6387 10.4441 13.007 11.7247 11.7264C13.0052 10.4457 14.6367 9.57351 16.4129 9.22007C18.1892 8.86663 20.0303 9.04783 21.7035 9.74075C23.3768 10.4337 24.807 11.6072 25.8133 13.1129C26.8196 14.6186 27.3568 16.389 27.357 18.2C27.3546 20.6279 26.3891 22.9558 24.6724 24.6727C22.9557 26.3896 20.628 27.3554 18.2 27.358Z" fill="#00AA2B"/>
</svg>
