<svg width="73" height="28" viewBox="0 0 73 28" xmlns="http://www.w3.org/2000/svg">
    <path d="M72.6523 27H68.3245L66.1854 20.9477H56.8334L54.7772 27H50.466L59.3704 3.22187H63.8143L72.6523 27ZM65.1408 17.7308L61.841 8.24612C61.7415 7.93659 61.6365 7.43914 61.526 6.75377H61.4597C61.3602 7.38387 61.2496 7.88132 61.128 8.24612L57.8614 17.7308H65.1408Z"
          fill="#fff"/>
    <path d="M54.7891 26.7959L-3.8147e-06 26.7959" stroke="#fff" stroke-width="0.530614"/>
    <path fill-rule="evenodd" clip-rule="evenodd"
          d="M13.7962 11.1429H22.8166V26.5307H13.7962V11.1429ZM19.633 13.2653H20.6942V14.3266H19.633V13.2653ZM16.9799 13.2653H15.9187V14.3266H16.9799V13.2653ZM19.633 18.0409H20.6942V19.1021H19.633V18.0409ZM20.6942 22.8164H19.633V23.8776H20.6942V22.8164ZM15.9187 18.0409H16.9799V19.1021H15.9187V18.0409ZM16.9799 22.8164H15.9187V23.8776H16.9799V22.8164Z"
          fill="#fff"/>
    <path fill-rule="evenodd" clip-rule="evenodd"
          d="M24.9391 15.3878H31.3065V26.5307H24.9391V15.3878ZM26.531 16.9796H27.5922V18.0409H26.531V16.9796ZM29.7146 16.9796H28.6534V18.0409H29.7146V16.9796ZM26.531 20.6939H27.5922V21.7552H26.531V20.6939ZM27.5922 24.4082H26.531V25.4695H27.5922V24.4082ZM28.6534 20.6939H29.7146V21.7552H28.6534V20.6939ZM29.7146 24.4082H28.6534V25.4695H29.7146V24.4082Z"
          fill="#fff"/>
</svg>
