<svg width="249" height="48" viewBox="0 0 249 48" fill="none" xmlns="http://www.w3.org/2000/svg">
<path d="M121.742 31.7127H109.594L107.278 37.2669H101.07L112.716 11.3398H118.7L130.419 37.2669H124.064L121.742 31.7127ZM119.842 27.1567L115.687 17.228L111.538 27.1567H119.842Z" fill="#425463"/>
<path d="M138.668 35.9938C136.563 34.8975 134.8 33.2432 133.573 31.2121C132.328 29.1256 131.688 26.7341 131.724 24.3048C131.687 21.8644 132.331 19.462 133.586 17.3684C134.812 15.3394 136.575 13.6887 138.68 12.5983C140.75 11.5626 143.017 10.9784 145.33 10.8845C147.642 10.7907 149.949 11.1892 152.096 12.0538C153.882 12.8081 155.464 13.9756 156.711 15.4604L152.824 19.0123C152.027 18.0511 151.025 17.2799 149.891 16.7548C148.758 16.2297 147.522 15.964 146.273 15.9769C144.751 15.9475 143.246 16.3109 141.905 17.0322C140.656 17.7137 139.626 18.7361 138.935 19.9803C138.233 21.3027 137.865 22.7772 137.865 24.2745C137.865 25.7719 138.233 27.2464 138.935 28.5688C139.632 29.7984 140.661 30.8065 141.905 31.4773C143.245 32.202 144.75 32.5657 146.273 32.5326C147.525 32.5437 148.764 32.2735 149.898 31.7419C151.032 31.2103 152.032 30.4309 152.824 29.4611L156.711 33.0131C155.467 34.5187 153.876 35.7 152.075 36.4557C150.128 37.3048 148.027 37.7432 145.903 37.7436C143.383 37.768 140.897 37.1651 138.668 35.9891V35.9938Z" fill="#425463"/>
<path d="M165.284 35.9693C163.153 34.8695 161.371 33.1967 160.139 31.1392C158.907 29.0817 158.273 26.7212 158.31 24.3234C158.273 21.9255 158.907 19.565 160.139 17.5075C161.371 15.45 163.153 13.7772 165.284 12.6774C167.56 11.5333 170.073 10.9375 172.621 10.9375C175.169 10.9375 177.681 11.5333 179.958 12.6774C182.057 13.7891 183.817 15.4462 185.053 17.4742C186.28 19.5526 186.926 21.9226 186.924 24.3363C186.921 26.75 186.27 29.1187 185.039 31.1946C183.805 33.2242 182.044 34.8818 179.944 35.9914C177.667 37.1355 175.155 37.7313 172.607 37.7313C170.059 37.7313 167.546 37.1355 165.27 35.9914L165.284 35.9693ZM176.813 31.5483C178.031 30.864 179.038 29.8577 179.722 28.6397C180.424 27.3174 180.792 25.8428 180.792 24.3455C180.792 22.8481 180.424 21.3736 179.722 20.0512C179.043 18.8186 178.037 17.7982 176.813 17.1031C175.527 16.4105 174.089 16.048 172.628 16.048C171.167 16.048 169.729 16.4105 168.442 17.1031C167.22 17.7988 166.213 18.8191 165.534 20.0512C164.836 21.375 164.471 22.849 164.471 24.3455C164.471 25.842 164.836 27.3159 165.534 28.6397C166.219 29.8572 167.225 30.8634 168.442 31.5483C169.729 32.2403 171.167 32.6022 172.628 32.6016C174.089 32.601 175.527 32.2379 176.813 31.5448V31.5483Z" fill="#425463"/>
<path d="M215.587 11.3398V37.2669H209.523V26.6401H197.638V37.2669H191.582V11.3398H197.638V21.5664H209.524V11.3759L215.587 11.3398Z" fill="#425463"/>
<path d="M227.271 35.9693C225.14 34.8693 223.358 33.1965 222.127 31.139C220.895 29.0815 220.262 26.7211 220.298 24.3234C220.262 21.9256 220.895 19.5652 222.127 17.5077C223.358 15.4503 225.14 13.7774 227.271 12.6774C229.547 11.5333 232.06 10.9375 234.608 10.9375C237.156 10.9375 239.669 11.5333 241.945 12.6774C244.044 13.7891 245.804 15.4462 247.04 17.4742C248.295 19.5443 248.943 21.9251 248.911 24.3455C248.946 26.7563 248.306 29.1289 247.062 31.1946C245.826 33.2233 244.063 34.8793 241.962 35.9868C239.685 37.1308 237.172 37.7267 234.624 37.7267C232.076 37.7267 229.564 37.1308 227.287 35.9868L227.271 35.9693ZM238.8 31.5483C240.018 30.864 241.025 29.8577 241.709 28.6397C242.412 27.3174 242.779 25.8428 242.779 24.3455C242.779 22.8481 242.412 21.3736 241.709 20.0512C241.031 18.8187 240.024 17.7982 238.8 17.1031C237.514 16.4106 236.076 16.048 234.615 16.048C233.154 16.048 231.716 16.4106 230.43 17.1031C229.207 17.7988 228.2 18.8191 227.521 20.0512C226.823 21.375 226.458 22.849 226.458 24.3455C226.458 25.842 226.823 27.3159 227.521 28.6397C228.206 29.8573 229.212 30.8634 230.43 31.5483C231.716 32.2403 233.154 32.6022 234.615 32.6016C236.076 32.601 237.514 32.2379 238.8 31.5448V31.5483Z" fill="#425463"/>
<rect x="35.9258" y="18.5137" width="19.7783" height="25.5955" fill="white"/>
<path d="M45.4466 46.8743C41.1111 46.8833 36.877 45.5637 33.3143 43.0931C31.616 41.9116 30.1332 40.4473 28.9305 38.764C27.7251 37.0769 26.8593 35.1715 26.3814 33.1539C26.2872 32.777 25.8183 27.6055 25.8125 27.5543L45.7619 10.3867L65.1144 27.5543C65.1144 27.5543 65.1144 27.5939 65.1086 27.659C64.9841 29.1191 64.6816 32.5583 64.6002 32.9154C63.5619 37.0006 61.0829 40.5732 57.6196 42.9756C54.0644 45.5061 49.8104 46.8686 45.4466 46.8743ZM44.4507 34.4186H46.738V42.4893C46.738 42.6825 46.8147 42.8677 46.9513 43.0043C47.0879 43.1409 47.2731 43.2176 47.4663 43.2176C47.6595 43.2176 47.8447 43.1409 47.9813 43.0043C48.1179 42.8677 48.1946 42.6825 48.1946 42.4893V34.4186H50.4877V41.2665C50.4883 41.3694 50.5099 41.471 50.5511 41.5652C50.5923 41.6594 50.6523 41.7443 50.7274 41.8145C50.8591 41.9312 51.0285 41.9965 51.2044 41.9983C51.2358 41.9983 51.2672 41.9983 51.2963 41.9983C51.392 41.9985 51.4867 41.9798 51.5751 41.9433C51.6635 41.9069 51.7439 41.8534 51.8117 41.7858C51.8794 41.7183 51.9332 41.6381 51.9699 41.5498C52.0066 41.4615 52.0256 41.3668 52.0258 41.2712V33.6833C52.0253 33.5874 52.006 33.4925 51.9688 33.4041C51.9317 33.3157 51.8774 33.2355 51.8093 33.1681C51.7411 33.1007 51.6603 33.0473 51.5714 33.0112C51.4826 32.975 51.3876 32.9567 51.2917 32.9573H40.0064C39.8129 32.9573 39.6274 33.0342 39.4906 33.171C39.3538 33.3078 39.2769 33.4933 39.2769 33.6868V41.27C39.2769 41.4632 39.3536 41.6484 39.4902 41.785C39.6268 41.9216 39.8121 41.9983 40.0052 41.9983C40.1984 41.9983 40.3836 41.9216 40.5202 41.785C40.6568 41.6484 40.7335 41.4632 40.7335 41.27V34.4186H42.9941V42.4893C42.9941 42.6815 43.0704 42.8659 43.2064 43.0018C43.3423 43.1378 43.5267 43.2141 43.7189 43.2141C43.9111 43.2141 44.0955 43.1378 44.2314 43.0018C44.3673 42.8659 44.4437 42.6815 44.4437 42.4893V34.4186H44.4507ZM38.4555 29.7393C38.3573 29.7353 38.2594 29.7513 38.1675 29.7861C38.0757 29.821 37.9918 29.8741 37.921 29.9421C37.8501 30.0102 37.7938 30.0919 37.7553 30.1823C37.7168 30.2727 37.6969 30.3699 37.6969 30.4681C37.6969 30.5664 37.7168 30.6636 37.7553 30.754C37.7938 30.8444 37.8501 30.9261 37.921 30.9942C37.9918 31.0622 38.0757 31.1153 38.1675 31.1501C38.2594 31.185 38.3573 31.201 38.4555 31.197H52.846C52.9429 31.1975 53.0389 31.1789 53.1286 31.1421C53.2182 31.1054 53.2997 31.0513 53.3684 30.983C53.4384 30.9169 53.4942 30.8372 53.5322 30.7488C53.5703 30.6603 53.5897 30.565 53.5894 30.4687C53.5894 30.2753 53.5126 30.0897 53.3758 29.9529C53.239 29.8161 53.0534 29.7393 52.86 29.7393H38.4555ZM36.9186 26.6841C36.7261 26.6841 36.5414 26.7606 36.4053 26.8967C36.2691 27.0329 36.1926 27.2175 36.1926 27.4101C36.1926 27.6026 36.2691 27.7873 36.4053 27.9234C36.5414 28.0596 36.7261 28.136 36.9186 28.136H54.3922C54.5848 28.136 54.7694 28.0596 54.9056 27.9234C55.0417 27.7873 55.1182 27.6026 55.1182 27.4101C55.1182 27.2175 55.0417 27.0329 54.9056 26.8967C54.7694 26.7606 54.5848 26.6841 54.3922 26.6841H36.9186ZM40.0866 20.1689C39.9292 20.1717 39.7788 20.234 39.6655 20.3434C39.6101 20.3977 39.5661 20.4625 39.5362 20.534C39.5062 20.6055 39.4908 20.6823 39.491 20.7599V24.2013C39.487 24.2781 39.4999 24.3548 39.5286 24.4262C39.5574 24.4975 39.6013 24.5617 39.6573 24.6143C39.7116 24.6715 39.7769 24.7171 39.8493 24.7483C39.9217 24.7795 39.9997 24.7957 40.0785 24.7958H42.7719C43.1377 24.791 43.4876 24.6457 43.7491 24.3898C43.8762 24.2636 43.9767 24.1133 44.0446 23.9476C44.1126 23.782 44.1466 23.6044 44.1447 23.4253V23.0588H51.0031C51.0276 23.0588 51.0508 23.0588 51.0764 23.0588C51.1748 23.059 51.2715 23.0338 51.3573 22.9857C51.4431 22.9376 51.5151 22.8682 51.5662 22.7843C51.6292 22.6927 51.6629 22.5842 51.6629 22.473C51.6629 22.3619 51.6292 22.2534 51.5662 22.1618C51.5155 22.0772 51.4437 22.0073 51.3579 21.9587C51.272 21.9102 51.1751 21.8848 51.0764 21.8849C51.052 21.8828 51.0275 21.8828 51.0031 21.8849H49.8862V20.5086C49.8684 20.363 49.798 20.2288 49.6884 20.1314C49.5787 20.0339 49.4373 19.9798 49.2906 19.9792C49.1438 19.9789 49.0021 20.0327 48.8926 20.1304C48.7831 20.2281 48.7135 20.3628 48.6972 20.5086V21.8861H47.5477V21.2962C47.545 21.1408 47.4812 20.9927 47.3702 20.8838C47.2592 20.775 47.1099 20.7142 46.9544 20.7145C46.8768 20.7126 46.7997 20.7263 46.7275 20.7547C46.6553 20.7831 46.5895 20.8257 46.534 20.8799C46.4785 20.9341 46.4344 20.9988 46.4043 21.0703C46.3742 21.1418 46.3587 21.2186 46.3587 21.2962V21.8861H44.1761V21.5371C44.1758 21.3558 44.1398 21.1763 44.0701 21.0089C44.0004 20.8416 43.8984 20.6896 43.7699 20.5616C43.6414 20.4337 43.489 20.3324 43.3214 20.2634C43.1537 20.1944 42.9741 20.1591 42.7928 20.1595L40.0866 20.1689ZM42.7986 23.6173H40.68V21.3381H42.7742C42.8 21.3381 42.8255 21.3432 42.8493 21.3532C42.8731 21.3632 42.8947 21.3778 42.9128 21.3962C42.9309 21.4147 42.9451 21.4365 42.9547 21.4605C42.9643 21.4844 42.9689 21.5101 42.9685 21.5359L42.9952 23.4207C42.9946 23.4726 42.9737 23.5223 42.937 23.559C42.9002 23.5958 42.8506 23.6167 42.7986 23.6173Z" fill="#00AA2B"/>
<path d="M89.5067 7.26368C89.2643 7.02288 88.9754 6.83409 88.6575 6.70886C88.3396 6.58363 87.9995 6.52459 87.658 6.53537C86.7532 6.59396 85.8755 6.86843 85.0985 7.33581V7.11011C85.0923 6.98144 85.1121 6.85285 85.1566 6.73199C85.2997 6.14092 85.2829 5.52244 85.1081 4.93997C84.9333 4.3575 84.6068 3.83201 84.1619 3.41737L84.0525 3.33011L83.4627 2.90779L83.2812 2.64601L82.917 2.04917C82.8081 1.88079 82.6756 1.72879 82.5238 1.59776L81.9444 1.11959C81.5786 0.810338 81.1179 0.635818 80.639 0.625133C80.3036 0.62664 79.972 0.695893 79.6641 0.828733C79.4813 0.778902 79.2927 0.754242 79.1033 0.755437C78.5815 0.755108 78.0727 0.917812 77.6479 1.22081C77.2776 1.48785 77.0184 1.8816 76.9195 2.32723L76.7299 2.40751C76.4274 2.57617 76.1401 2.7708 75.8713 2.98923C75.5221 3.25317 75.1577 3.49636 74.78 3.71754L74.5322 3.849C74.0313 4.05366 73.5994 4.39717 73.2873 4.83909C73.0971 5.16046 72.9831 5.52116 72.954 5.89347C72.925 6.26578 72.9817 6.6398 73.1198 6.98678C73.3723 7.6876 73.8715 8.27242 74.524 8.63187L73.6573 9.24384C72.7781 9.96829 71.9464 10.7486 71.1675 11.58H69.9029L69.8296 11.4858V10.1827C70.0045 9.5595 70.0976 8.91614 70.1065 8.26888C70.1052 7.91023 70.0322 7.55546 69.8916 7.22549C69.7511 6.89551 69.5459 6.59703 69.2881 6.34763C69.0304 6.09823 68.7253 5.90297 68.3909 5.77336C68.0565 5.64375 67.6995 5.58242 67.341 5.59299C67.1705 5.59413 67.0003 5.60618 66.8314 5.62906C66.1761 5.71696 65.5741 6.03736 65.1351 6.53188V2.45987C65.1333 2.2164 65.0834 1.97569 64.9883 1.75156C64.8932 1.52743 64.7548 1.32429 64.5809 1.15381C64.4071 0.98333 64.2013 0.848868 63.9754 0.758142C63.7494 0.667416 63.5078 0.622215 63.2643 0.625133H27.6633C27.4214 0.624214 27.1818 0.670943 26.958 0.76265C26.7342 0.854357 26.5306 0.989247 26.359 1.15962C26.1873 1.32999 26.0509 1.5325 25.9575 1.7556C25.8641 1.9787 25.8155 2.21801 25.8146 2.45987V6.36085C25.3971 5.9687 24.8691 5.71443 24.3021 5.63255C24.1309 5.60993 23.9583 5.59788 23.7856 5.59648C23.4271 5.58591 23.0701 5.64724 22.7357 5.77685C22.4013 5.90646 22.0962 6.10172 21.8384 6.35112C21.5807 6.60052 21.3755 6.89901 21.2349 7.22898C21.0944 7.55895 21.0213 7.91372 21.0201 8.27237C21.029 8.91963 21.1221 9.56298 21.297 10.1862V11.5474L21.2167 11.6417H19.9556C19.1767 10.8103 18.345 10.03 17.4658 9.3055L16.5921 8.63536C17.2299 8.26925 17.7171 7.68881 17.9673 6.99725C18.102 6.64927 18.1563 6.27533 18.126 5.90341C18.0958 5.53149 17.9819 5.17122 17.7927 4.84956C17.4821 4.40624 17.0497 4.06236 16.5479 3.85948L16.3001 3.72801C15.9223 3.50683 15.5579 3.26364 15.2088 2.9997C14.9412 2.77964 14.6537 2.5849 14.3501 2.41798L14.1605 2.33771C14.0616 1.89207 13.8024 1.49832 13.4322 1.23128C13.0074 0.928283 12.4985 0.765579 11.9767 0.765908C11.7874 0.764713 11.5987 0.789373 11.416 0.839204C11.1203 0.707574 10.8018 0.63486 10.4782 0.625133C9.99034 0.622156 9.51671 0.789634 9.13913 1.09865L8.56439 1.57217C8.4127 1.70247 8.2803 1.85368 8.17116 2.02125L7.807 2.61809L7.6255 2.87986L7.03565 3.30103L6.92628 3.38828C6.47859 3.80258 6.14952 4.3288 5.97303 4.91269C5.79654 5.49657 5.779 6.11697 5.92224 6.70988C5.92224 6.82623 5.96645 6.94257 5.98041 7.088C5.98815 7.16304 5.98815 7.23867 5.98041 7.3137C5.20258 6.84814 4.32536 6.57381 3.42086 6.51326C3.08043 6.50262 2.74143 6.56175 2.4247 6.687C2.10797 6.81225 1.82022 7.00098 1.57915 7.24157C1.22 7.61137 0.982246 8.08194 0.897634 8.59045C0.813023 9.09895 0.885586 9.62116 1.10563 10.0873C1.35979 10.6505 1.6851 11.1787 2.07361 11.6591C2.33517 12.0152 2.57826 12.3845 2.80192 12.7656C3.42642 14.0021 3.79745 15.3509 3.89321 16.7329C3.81942 18.4701 3.57549 20.196 3.16491 21.8857C2.58211 24.0056 2.23295 26.1829 2.12363 28.3788C2.1597 28.9466 2.37145 31.9238 3.69543 33.3816C4.54385 34.2127 5.68048 34.6841 6.86811 34.6974C6.90418 35.3745 6.99958 36.3856 7.07171 37.0336L5.529 37.855C5.22174 38.0214 4.9699 38.2741 4.80451 38.5819C4.63913 38.8898 4.56743 39.2392 4.59825 39.5873L5.07875 45.1043C5.11845 45.523 5.30372 45.9145 5.6023 46.2107L6.47603 47.0915C6.82825 47.4414 7.3047 47.6376 7.80118 47.6371H10.327C10.6963 47.6199 11.0585 47.5295 11.3926 47.3712C11.7267 47.2129 12.026 46.9898 12.2732 46.7149C12.5204 46.44 12.7106 46.1187 12.8326 45.7698C12.9547 45.4208 13.0062 45.051 12.9843 44.682C12.9046 43.8998 12.5345 43.176 11.9471 42.6535C11.3597 42.1309 10.5977 41.8476 9.81159 41.8595L10.2118 41.6198C11.5003 41.5726 12.7543 41.1914 13.851 40.5134C14.8135 39.8921 15.5728 39.0022 16.0348 37.9539L16.4932 38.2959V39.7002C16.48 40.0745 16.5846 40.4436 16.7922 40.7554L19.4343 44.3004C19.6038 44.5331 19.8258 44.7224 20.0824 44.853L21.6786 45.65C21.9406 45.7822 22.2298 45.8519 22.5233 45.8536H24.4162C24.6871 45.8527 24.9549 45.7957 25.2026 45.686C25.5497 45.5406 25.8638 45.3265 26.126 45.0566C26.3883 44.7867 26.5932 44.4666 26.7286 44.1155C26.864 43.7644 26.9271 43.3895 26.9139 43.0134C26.9008 42.6373 26.8118 42.2678 26.6523 41.927C25.8809 40.2598 23.7914 40.005 22.7804 39.9841L22.0521 39.0452L22.1033 38.4262C22.6014 37.4673 22.8518 36.3991 22.8316 35.3187C22.8375 34.0581 22.6205 32.8063 22.1905 31.6213C21.7752 30.6463 20.7351 29.7866 18.9003 28.5347L18.4931 28.2439H18.4489L18.3174 28.1275C18.7252 27.4165 19.1902 26.7399 19.7078 26.1043C20.3215 25.2202 20.8713 24.2933 21.3528 23.3307C21.608 23.4063 21.8732 23.4432 22.1393 23.44C22.4987 23.4388 22.8554 23.3774 23.1946 23.2585C24.3452 22.8653 24.8466 21.6786 25.269 20.35C25.4295 20.2476 25.6331 20.1103 25.8367 19.9928V27.5632C25.8367 27.6843 25.8607 27.8042 25.9073 27.916C25.9539 28.0277 26.0221 28.1292 26.1081 28.2144C26.1941 28.2996 26.2961 28.367 26.4083 28.4126C26.5205 28.4582 26.6406 28.4811 26.7616 28.48H26.8268C27.0676 28.4821 27.2999 28.3908 27.4748 28.2252L45.6453 10.8156L63.4202 28.0228C63.5219 28.1962 63.6779 28.3312 63.8641 28.4071C64.0502 28.4829 64.2562 28.4953 64.4501 28.4423C64.644 28.3893 64.815 28.2739 64.9367 28.114C65.0585 27.954 65.1241 27.7584 65.1235 27.5574V19.8555C65.1534 19.884 65.1848 19.9108 65.2177 19.9358C65.443 20.06 65.6617 20.1959 65.8727 20.343C66.2951 21.6681 66.7977 22.8537 67.9471 23.2516C68.2863 23.3704 68.643 23.4318 69.0024 23.4331C69.2685 23.4362 69.5337 23.3993 69.7889 23.3237C70.2693 24.2886 70.8183 25.2178 71.4316 26.1043C71.9313 26.7379 72.3769 27.4124 72.7637 28.1205L72.6323 28.2369H72.5881L72.1809 28.5277C70.3682 29.7796 69.2723 30.6382 68.8907 31.6143C68.4642 32.8003 68.2473 34.0514 68.2496 35.3117C68.2294 36.3921 68.4798 37.4603 68.9779 38.4192L69.0291 39.0382L68.3008 39.9771C67.2886 39.9771 65.2003 40.254 64.4289 41.92C64.2701 42.2606 64.1819 42.6298 64.1697 43.0054C64.1575 43.381 64.2216 43.7552 64.358 44.1053C64.4945 44.4554 64.7005 44.7743 64.9637 45.0426C65.2268 45.3109 65.5416 45.523 65.889 45.6663C66.1337 45.7766 66.399 45.8338 66.6674 45.8338H68.5603C68.8538 45.8321 69.1429 45.7624 69.4049 45.6302L70.9872 44.8356C71.2445 44.7032 71.4685 44.5143 71.6422 44.2829L74.2995 40.7531C74.5262 40.4453 74.6485 40.0731 74.6485 39.6909V38.2854L75.1069 37.9434C75.5689 38.9917 76.3282 39.8816 77.2907 40.5029C78.3874 41.1809 79.6414 41.5622 80.9299 41.6094L81.3301 41.849C80.5448 41.8386 79.7841 42.1227 79.1979 42.6454C78.6117 43.1681 78.2426 43.8913 78.1632 44.6727C78.1413 45.0417 78.1928 45.4115 78.3149 45.7604C78.4369 46.1094 78.6271 46.4307 78.8743 46.7056C79.1215 46.9805 79.4208 47.2036 79.7549 47.3619C80.089 47.5202 80.4512 47.6106 80.8205 47.6278H83.3463C83.8428 47.6283 84.3193 47.4321 84.6715 47.0821L85.5522 46.2014C85.8487 45.9045 86.0315 45.513 86.0688 45.095L86.5493 39.578C86.5801 39.2299 86.5084 38.8804 86.343 38.5726C86.1776 38.2648 85.9258 38.0121 85.6185 37.8457L84.0537 37.0161C84.127 36.3681 84.2212 35.3571 84.2573 34.68C85.4323 34.6621 86.556 34.196 87.3986 33.3769C88.7156 31.9215 88.9273 28.9733 88.9564 28.3986C88.8487 26.2026 88.4995 24.0251 87.9151 21.9055C87.4999 20.2167 87.2559 18.4904 87.1868 16.7526C87.2765 15.3705 87.6453 14.0209 88.2711 12.7853C88.5038 12.3991 88.7656 12.057 88.9995 11.6789C89.4051 11.1941 89.7454 10.6583 90.0116 10.085C90.2202 9.61834 90.2835 9.09975 90.1935 8.59661C90.1034 8.09347 89.8642 7.62904 89.5067 7.26368ZM46.2852 8.86456C46.1112 8.69402 45.8773 8.5985 45.6337 8.5985C45.39 8.5985 45.1561 8.69402 44.9822 8.86456L27.6645 25.49V21.0061C27.8712 20.9875 28.0657 20.9002 28.2171 20.7583L45.6209 3.53371L63.2573 21.0061V25.3225L46.2852 8.86456ZM44.1073 2.45987L27.6645 18.72V17.417C27.7045 17.1224 27.7045 16.8238 27.6645 16.5293V13.8534C27.7321 13.8163 27.7957 13.7722 27.8541 13.7219L39.2313 2.45405L44.1073 2.45987ZM51.9907 2.96945L63.2655 14.171V18.414L47.1636 2.45987H51.7347C51.7571 2.64854 51.8357 2.82611 51.9604 2.96945H51.9907ZM63.2655 11.5788L54.0639 2.45987H63.2643L63.2655 11.5788ZM36.6171 2.45987L27.6586 11.3252V2.45987H36.6171ZM25.6983 17.6869L24.97 18.371C24.97 18.371 23.7321 19.0993 23.6239 19.3832C23.5157 19.667 23.0747 21.3691 22.5686 21.5669C22.4265 21.621 22.2762 21.6505 22.1242 21.6542C22.0183 21.6597 21.9127 21.6372 21.8182 21.589L19.9986 20.3441C19.9992 20.9423 19.9455 21.5393 19.8381 22.1277C19.3882 23.1465 18.8428 24.1203 18.2092 25.0363C17.4795 25.9422 16.8861 26.9499 16.4478 28.0275C16.4381 28.3538 16.5143 28.6769 16.6689 28.9644C16.8235 29.2519 17.051 29.4937 17.3285 29.6656C17.6776 29.9646 20.1452 31.4712 20.5163 32.3589C20.8643 33.3552 21.0367 34.4043 21.0259 35.4595C20.9974 36.3398 20.7469 37.1986 20.2976 37.9562L20.1661 39.6152L21.8403 41.799H22.6117C22.7722 41.799 24.5546 41.799 24.956 42.6867C25.0082 42.8133 25.0347 42.9489 25.0339 43.0858C25.0332 43.2227 25.0053 43.358 24.9518 43.484C24.8984 43.61 24.8204 43.7241 24.7224 43.8197C24.6245 43.9153 24.5085 43.9905 24.3813 44.0409H22.493L20.9131 43.2475L18.293 39.6885V37.3465C17.608 36.9065 16.9538 36.4202 16.335 35.8911C15.8081 35.3615 15.3575 34.7612 14.9958 34.1076C14.9915 34.5573 14.9451 35.0056 14.8574 35.4467C14.679 36.8463 13.9609 38.1208 12.8563 38.9986C11.9646 39.537 10.9428 39.8215 9.90118 39.8212H9.69525L7.86866 40.9206L8.06645 43.7664C8.51144 43.6935 8.96162 43.657 9.41254 43.657H9.60218C10.4387 43.657 11.0576 44.0212 11.1449 44.8658C11.2321 45.7105 10.1118 45.8338 10.1118 45.8338H7.80002L6.9193 44.9461L6.43764 39.4361C6.43764 39.4361 8.65863 38.204 8.7901 38.0958C8.92157 37.9876 8.96462 37.4338 8.96462 37.4338C8.96462 37.4338 8.74589 35.456 8.70284 34.4787C8.74339 33.5416 8.88498 32.6117 9.12517 31.7051C8.77515 32.0889 8.3734 32.4221 7.93149 32.6951C7.65735 32.8186 7.35809 32.8759 7.05775 32.8627C6.32944 32.8827 5.6213 32.622 5.07992 32.1344C4.37066 30.9739 3.98837 29.6433 3.97349 28.2834C4.1109 26.2539 4.44719 24.2428 4.97753 22.2789C5.44305 20.4155 5.70673 18.5073 5.76401 16.5874C5.64541 14.9331 5.18971 13.3205 4.4249 11.8488C3.49416 10.277 2.24114 9.27176 2.96945 8.50041C3.03732 8.43922 3.11677 8.39226 3.20309 8.36229C3.28941 8.33231 3.38087 8.31994 3.47205 8.32589C4.60058 8.32589 6.79132 9.89769 7.43936 10.5097C8.69121 11.6894 10.5806 13.1855 11.1728 15.467C11.8499 18.1022 11.1728 20.4454 9.16356 24.2021C7.06939 28.1578 7.44634 27.3538 7.2567 27.9146C7.14452 28.1495 7.11223 28.4147 7.16474 28.6697C7.21725 28.9247 7.35169 29.1555 7.54756 29.327C7.67527 29.4434 7.84022 29.5107 8.01293 29.5166C8.28122 29.4836 8.52635 29.3481 8.69703 29.1385C9.2578 28.5859 9.24268 28.7022 9.94888 27.2247C10.6551 25.7471 12.1326 23.1922 12.7725 21.475C13.5003 19.9583 13.7654 18.2608 13.5346 16.5944C13.3531 15.139 12.5015 13.1739 10.0769 10.633C7.65226 8.09204 7.96639 7.44517 7.74999 6.36783C7.67112 6.09039 7.66657 5.79708 7.73682 5.51733C7.80706 5.23757 7.94963 4.98121 8.15021 4.77393L8.97974 4.17709L9.37996 3.61632L9.7732 2.96829L10.3479 2.49477C10.3901 2.46417 10.4413 2.4486 10.4934 2.45056C10.5956 2.45518 10.6958 2.48009 10.7883 2.52384C10.8808 2.56758 10.9636 2.62928 11.032 2.70535L11.3811 3.33128C11.5274 3.07454 11.6956 2.83088 11.8837 2.60297C11.9246 2.56936 11.9761 2.55124 12.0291 2.55178C12.1438 2.55783 12.2546 2.5957 12.349 2.66114C12.4176 2.96911 12.4446 3.28488 12.4293 3.60003C12.4293 3.60003 13.2879 3.89903 13.5497 4.02934C13.8115 4.15964 14.7131 4.93216 15.4426 5.31726C16.1721 5.70235 16.4467 5.71748 16.207 6.44579C15.9673 7.17409 14.7073 7.47891 14.7073 7.47891C14.1334 7.46689 13.5598 7.518 12.9971 7.63132C12.662 7.78373 12.9971 8.08273 13.3252 8.46783C14.2935 9.2722 15.307 10.0207 16.3606 10.7098C17.3318 11.552 18.2577 12.4452 19.1342 13.3857L22.1044 13.4508L23.1375 12.1547V9.97099C22.9892 9.44316 22.8941 8.90178 22.8537 8.35498C22.8442 8.23116 22.8613 8.10676 22.9037 7.99007C22.9462 7.87337 23.013 7.76706 23.0997 7.67821C23.1865 7.58937 23.2912 7.52004 23.4068 7.47484C23.5225 7.42964 23.6465 7.40961 23.7705 7.41609H24.0183C24.2658 7.45251 24.4901 7.58194 24.6456 7.778C24.801 7.97406 24.8758 8.22201 24.8548 8.47132L24.6512 10.1094L24.1055 14.0325C23.1542 14.9231 22.2505 15.8633 21.3982 16.8492C21.4424 17.0016 21.7042 18.4652 21.7042 18.4652H22.6501L23.9752 16.2233C24.204 16.0207 24.4992 15.9093 24.8047 15.9103C25.0481 15.9158 25.2832 15.9999 25.4749 16.15C25.6563 16.2724 25.7879 16.4556 25.846 16.6665V17.2622C25.8047 17.4127 25.7437 17.5571 25.6645 17.6915L25.6983 17.6869ZM65.1572 14.4118V13.9965L65.2014 14.3094V14.3827L65.1572 14.4118ZM86.6738 11.8523C85.9123 13.3224 85.459 14.9325 85.3416 16.5839C85.4026 18.5035 85.6662 20.4113 86.1281 22.2754C86.6549 24.24 86.9911 26.2508 87.1321 28.2799C87.1194 29.6483 86.7398 30.9883 86.0327 32.16C85.489 32.6498 84.7771 32.9107 84.0456 32.8883C83.7452 32.9015 83.446 32.8442 83.1718 32.7207C82.7299 32.4477 82.3282 32.1145 81.9781 31.7307C82.2183 32.6373 82.3599 33.5672 82.4005 34.5043C82.3563 35.4792 82.1387 37.4594 82.1387 37.4594C82.1387 37.4594 82.1829 38.0202 82.3132 38.1214C82.4435 38.2226 84.6645 39.4605 84.6645 39.4605L84.184 44.9705L83.3033 45.8582H80.9881C80.9881 45.8582 79.8677 45.7268 79.9549 44.8902C80.0422 44.0537 80.6832 43.7035 81.4976 43.6814H81.6873C82.1409 43.6816 82.5938 43.7182 83.0415 43.7908L83.2381 40.9229L81.4116 39.8235H81.1998C80.1583 39.823 79.1366 39.5387 78.2447 39.0009C77.1358 38.1258 76.4167 36.8487 76.2436 35.4467C76.1603 35.005 76.1163 34.5569 76.1121 34.1076C75.7384 34.757 75.2777 35.3524 74.7428 35.8771C74.1239 36.4063 73.4697 36.8925 72.7847 37.3326V39.6769L70.1716 43.2358L68.5847 44.0293H66.693C66.5657 43.9789 66.4497 43.9037 66.3518 43.8081C66.2538 43.7125 66.1758 43.5984 66.1224 43.4724C66.0689 43.3464 66.041 43.211 66.0403 43.0741C66.0396 42.9373 66.0661 42.8016 66.1182 42.6751C66.5184 41.8083 68.302 41.7874 68.4625 41.7874H69.249L70.9151 39.6001L70.7836 37.9411C70.3343 37.1835 70.0838 36.3247 70.0553 35.4443C70.0512 34.3896 70.2234 33.3417 70.5649 32.3438C70.936 31.4561 73.4036 29.9494 73.7527 29.6504C74.0311 29.4796 74.2593 29.238 74.414 28.9502C74.5687 28.6625 74.6444 28.3388 74.6334 28.0123C74.203 26.9311 73.608 25.9229 72.8696 25.0235C72.2361 24.1076 71.6907 23.1337 71.2408 22.1149C71.1334 21.5265 71.0797 20.9295 71.0803 20.3314L69.2607 21.5762C69.1662 21.6244 69.0606 21.6469 68.9547 21.6414C68.8027 21.6377 68.6524 21.6082 68.5102 21.5541C68.0007 21.3866 67.5644 19.7054 67.455 19.3704C67.3456 19.0353 66.1089 18.3582 66.1089 18.3582L65.3806 17.6741C65.3806 17.6741 64.828 16.7201 65.5993 16.1616C65.791 16.0115 66.0261 15.9275 66.2695 15.9219C66.5556 15.9292 66.8304 16.0348 67.0478 16.2209L68.4672 18.4768H69.4131C69.4131 18.4768 69.6748 17.0214 69.7191 16.8608C68.8661 15.8833 67.9624 14.9513 67.0117 14.0686L66.4707 10.1455L66.2741 8.50739C66.2509 8.25872 66.324 8.01063 66.4784 7.81429C66.6327 7.61795 66.8565 7.48833 67.1037 7.45215H67.3515C67.4756 7.44673 67.5994 7.46741 67.715 7.51287C67.8307 7.55832 67.9354 7.62753 68.0226 7.71603C68.1098 7.80452 68.1774 7.91033 68.2211 8.0266C68.2649 8.14288 68.2837 8.26704 68.2764 8.39104C68.2347 8.93821 68.1373 9.47969 67.9855 10.0071V12.1908L69.0187 13.4869L71.9924 13.4229C72.8689 12.4825 73.7948 11.5892 74.766 10.747C75.8196 10.058 76.833 9.30943 77.8014 8.50506C78.1144 8.1188 78.4634 7.82096 78.1365 7.66855C77.5713 7.55547 76.9955 7.50436 76.4193 7.51614C76.4193 7.51614 75.1604 7.17409 74.9068 6.44579C74.6532 5.71748 74.9719 5.71748 75.7003 5.3254C76.4286 4.93332 77.3291 4.16778 77.5932 4.03748C77.8573 3.90718 78.7136 3.60817 78.7136 3.60817C78.694 3.29641 78.7159 2.98343 78.7787 2.67743C78.8736 2.613 78.9841 2.57523 79.0986 2.56806C79.1516 2.56753 79.2031 2.58565 79.2441 2.61926C79.4322 2.84717 79.6003 3.09084 79.7467 3.34756C79.7467 3.34756 80.0085 2.87405 80.1039 2.72164C80.1698 2.64445 80.2512 2.58191 80.3428 2.53803C80.4343 2.49416 80.534 2.46991 80.6355 2.46685C80.6876 2.46489 80.7388 2.48046 80.781 2.51106L81.3557 2.98457L81.7489 3.63261L82.1492 4.19338L82.9787 4.79022C83.1793 4.99749 83.3218 5.25386 83.3921 5.53362C83.4623 5.81337 83.4578 6.10668 83.3789 6.38412C83.1602 7.46146 83.4662 8.10949 81.052 10.6493C78.6379 13.189 77.777 15.1262 77.5943 16.6107C77.3519 18.2726 77.6052 19.9692 78.3226 21.4878C78.9637 23.205 80.4482 25.7751 81.1463 27.2375C81.3975 27.9698 81.8278 28.6277 82.3981 29.1513C82.5705 29.3625 82.8184 29.4982 83.0892 29.5294C83.2595 29.5218 83.4217 29.4547 83.5476 29.3398C83.7435 29.1683 83.8779 28.9375 83.9304 28.6825C83.9829 28.4275 83.9506 28.1623 83.8385 27.9274C83.6488 27.3666 84.0281 28.1752 81.9316 24.2149C79.9538 20.4733 79.2452 18.1301 79.9223 15.4798C80.5122 13.1949 82.404 11.7022 83.664 10.5225C84.312 9.91049 86.4958 8.33869 87.6196 8.33869C87.7108 8.33274 87.8023 8.34511 87.8886 8.37508C87.9749 8.40506 88.0544 8.45202 88.1222 8.5132C88.9006 9.27176 87.6196 10.2816 86.6738 11.8488V11.8523Z" fill="#425463"/>
<path d="M64.1605 26.582C63.9503 26.5824 63.7467 26.6549 63.5836 26.7875C63.4205 26.9201 63.3079 27.1047 63.2647 27.3104L62.7912 32.6168C61.8394 36.4891 59.6178 39.9309 56.4809 42.3928C53.3441 44.8547 49.4728 46.1946 45.4853 46.1988C41.4977 46.2029 37.6237 44.871 34.4817 42.4157C31.3397 39.9604 29.1109 36.5232 28.1511 32.6528C28.1511 32.6528 27.6276 27.2371 27.6194 27.208C27.5517 26.9823 27.4005 26.791 27.1965 26.6731C26.9926 26.5551 26.7513 26.5195 26.522 26.5733C26.2926 26.6272 26.0925 26.7666 25.9624 26.963C25.8323 27.1594 25.7821 27.3981 25.8219 27.6303C25.8219 27.6303 26.3536 33.0461 26.3536 33.0752C27.4192 37.3431 29.8827 41.1314 33.3516 43.8365C36.8205 46.5415 41.095 48.0075 45.4939 48.0008C49.8928 47.9941 54.1629 46.5151 57.6235 43.7995C61.0841 41.084 63.5361 37.2881 64.5887 33.017L65.1122 27.6815C65.142 27.5434 65.1393 27.4003 65.1042 27.2635C65.0691 27.1267 65.0026 26.9999 64.9101 26.8933C64.8175 26.7866 64.7014 26.7029 64.5709 26.6489C64.4404 26.5949 64.2991 26.572 64.1582 26.582H64.1605Z" fill="#425463"/>
</svg>
