<svg width="24" height="18" viewBox="0 0 24 18" fill="none" xmlns="http://www.w3.org/2000/svg">
<path d="M0.32684 9.78899L7.46884 16.931C7.9046 17.3667 8.6113 17.3667 9.04705 16.931C9.48289 16.4952 9.48289 15.7886 9.04705 15.3528L3.81008 10.1158L22.8841 10.1158C23.5003 10.1158 24 9.61615 24 8.99989C24 8.38371 23.5003 7.88395 22.8841 7.88395L3.81008 7.88395L9.04687 2.64698C9.48271 2.21114 9.48271 1.50462 9.04687 1.06878C8.82904 0.851033 8.54336 0.74194 8.25777 0.74194C7.97218 0.74194 7.68659 0.851033 7.46867 1.06878L0.32684 8.21078C-0.109 8.64662 -0.109 9.35315 0.32684 9.78899Z" fill="#425463"/>
</svg>
