<svg width="23" height="40" viewBox="0 0 23 40" fill="none" xmlns="http://www.w3.org/2000/svg">
<path d="M12.4635 39.7558L22.776 27.2558C23.0446 26.9303 23.0446 26.403 22.776 26.0775C22.5074 25.7519 22.0723 25.7519 21.8038 26.0775L12.6649 37.155L12.6649 0.833358C12.6649 0.372734 12.3574 -4.64216e-07 11.9774 -4.80827e-07C11.5974 -4.97438e-07 11.2899 0.372734 11.2899 0.833358L11.2899 37.155L2.15098 26.0775C1.8824 25.7519 1.44735 25.7519 1.17883 26.0775C1.04458 26.2402 0.977418 26.4535 0.977418 26.6667C0.977418 26.8799 1.04458 27.0931 1.17883 27.2559L11.4913 39.7559C11.7598 40.0814 12.1949 40.0814 12.4635 39.7558Z" fill="black"/>
</svg>
