<svg width="18" height="30" viewBox="0 0 18 30" fill="none" xmlns="http://www.w3.org/2000/svg">
    <path d="M11.0254 29.9414H6.2118C5.40777 29.9414 4.75373 29.2886 4.75373 28.4862V17.65H1.94535C1.14132 17.65 0.487274 16.997 0.487274 16.1948V11.5514C0.487274 10.749 1.14132 10.0962 1.94535 10.0962H4.75373V7.771C4.75373 5.46547 5.4791 3.50395 6.85118 2.09885C8.22945 0.687332 10.1556 -0.0585938 12.4214 -0.0585938L16.0925 -0.0526429C16.8951 -0.0512695 17.548 0.601502 17.548 1.40259V5.71381C17.548 6.51627 16.8942 7.16904 16.0904 7.16904L13.6187 7.16995C12.8649 7.16995 12.6729 7.32079 12.6319 7.36702C12.5642 7.4437 12.4837 7.66045 12.4837 8.25897V10.096H15.9047C16.1622 10.096 16.4117 10.1594 16.6261 10.2789C17.0887 10.5368 17.3763 11.0246 17.3763 11.5517L17.3744 16.195C17.3744 16.997 16.7204 17.6498 15.9164 17.6498H12.4837V28.4862C12.4837 29.2886 11.8295 29.9414 11.0254 29.9414ZM6.5159 28.1827H10.7213V16.8626C10.7213 16.3268 11.1582 15.891 11.6948 15.891H15.6123L15.6139 11.8549H11.6946C11.158 11.8549 10.7213 11.4191 10.7213 10.8833V8.25897C10.7213 7.57187 10.7913 6.79047 11.311 6.20316C11.9389 5.49316 12.9284 5.41122 13.6182 5.41122L15.7859 5.41031V1.70563L12.42 1.70013C8.77869 1.70013 6.5159 4.02649 6.5159 7.771V10.8833C6.5159 11.4189 6.07925 11.8549 5.54262 11.8549H2.24944V15.891H5.54262C6.07925 15.891 6.5159 16.3268 6.5159 16.8626V28.1827ZM16.089 1.70609H16.0893H16.089Z"
          fill="white"/>
</svg>
