<svg width="16" height="19" viewBox="0 0 16 19" fill="none" xmlns="http://www.w3.org/2000/svg">
<path d="M8.172 18.7557C8.65138 18.7542 9.11069 18.5631 9.44966 18.2241C9.78863 17.8851 9.97973 17.4258 9.98124 16.9465H6.36162C6.36313 17.426 6.55439 17.8855 6.8936 18.2245C7.23282 18.5635 7.69243 18.7545 8.172 18.7557ZM14.0532 13.3268V8.35031C14.0583 7.02761 13.6131 5.74255 12.7909 4.70647C11.9686 3.6704 10.8182 2.94501 9.52893 2.64962V2.0157C9.52893 1.65567 9.38591 1.31038 9.13133 1.0558C8.87675 0.801225 8.53146 0.658203 8.17143 0.658203C7.8114 0.658203 7.46611 0.801225 7.21153 1.0558C6.95695 1.31038 6.81393 1.65567 6.81393 2.0157V2.64962C5.52463 2.94501 4.37425 3.6704 3.55199 4.70647C2.72974 5.74255 2.28457 7.02761 2.2897 8.35031V13.3268L0.480469 15.1361V16.0407H15.8624V15.1361L14.0532 13.3268Z" fill="#425463"/>
</svg>
