<svg xmlns="http://www.w3.org/2000/svg" width="11" height="17" viewBox="0 0 11 17"><path fill="#cbcbcb" d="M4.503 11.76c-1.285-.134-2.443-.45-3.434-1.226-.123-.097-.25-.19-.362-.297C.273 9.82.229 9.343.572 8.85c.294-.421.787-.534 1.3-.292.099.047.194.105.284.168 1.848 1.27 4.386 1.305 6.241.057.184-.14.38-.256.608-.314a.954.954 0 0 1 1.093.436c.271.442.268.874-.067 1.217a5.04 5.04 0 0 1-1.815 1.173c-.648.252-1.358.378-2.06.462.106.116.156.172.222.239.954.958 1.912 1.913 2.863 2.874.324.328.392.734.213 1.115-.195.417-.631.69-1.06.661-.27-.018-.482-.153-.67-.343-.72-.724-1.453-1.435-2.159-2.173-.205-.215-.304-.174-.485.012-.724.746-1.46 1.48-2.2 2.21-.333.328-.729.387-1.114.2-.41-.2-.671-.618-.65-1.038.013-.285.153-.502.348-.697.944-.942 1.886-1.888 2.828-2.832.062-.063.12-.13.21-.226z"/><path fill="#cbcbcb" d="M5.33 6.335a2.042 2.042 0 0 1-2.065-2.031A2.045 2.045 0 0 1 5.32 2.23 2.042 2.042 0 0 1 7.368 4.28a2.038 2.038 0 0 1-2.039 2.056zm-.045 2.14c2.315.009 4.207-1.847 4.218-4.138C9.515 1.993 7.654.097 5.335.09a4.2 4.2 0 0 0-4.207 4.184c-.013 2.295 1.866 4.194 4.157 4.202z"/><path fill="#cbcbcb" d="M4.503 11.76c-1.285-.134-2.443-.45-3.434-1.226-.123-.097-.25-.19-.362-.297C.273 9.82.229 9.343.572 8.85c.294-.421.787-.534 1.3-.292.099.047.194.105.284.168 1.848 1.27 4.386 1.305 6.241.057.184-.14.38-.256.608-.314a.954.954 0 0 1 1.093.436c.271.442.268.874-.067 1.217a5.04 5.04 0 0 1-1.815 1.173c-.648.252-1.358.378-2.06.462.106.116.156.172.222.239.954.958 1.912 1.913 2.863 2.874.324.328.392.734.213 1.115-.195.417-.631.69-1.06.661-.27-.018-.482-.153-.67-.343-.72-.724-1.453-1.435-2.159-2.173-.205-.215-.304-.174-.485.012-.724.746-1.46 1.48-2.2 2.21-.333.328-.729.387-1.114.2-.41-.2-.671-.618-.65-1.038.013-.285.153-.502.348-.697.944-.942 1.886-1.888 2.828-2.832.062-.063.12-.13.21-.226z"/><path fill="#cbcbcb" d="M5.33 6.335a2.042 2.042 0 0 1-2.065-2.031A2.045 2.045 0 0 1 5.32 2.23 2.042 2.042 0 0 1 7.368 4.28a2.038 2.038 0 0 1-2.039 2.056zm-.045 2.14c2.315.009 4.207-1.847 4.218-4.138C9.515 1.993 7.654.097 5.335.09a4.2 4.2 0 0 0-4.207 4.184c-.013 2.295 1.866 4.194 4.157 4.202z"/></svg>