<svg width="16" height="22" viewBox="0 0 16 22" fill="none" xmlns="http://www.w3.org/2000/svg">
<path d="M14.2543 15.1738L10.942 13.5177C10.7896 13.4417 10.6615 13.3246 10.5721 13.1797C10.4827 13.0348 10.4355 12.8678 10.436 12.6976V11.5268C10.5159 11.4297 10.5993 11.3189 10.685 11.1967C11.1217 10.5791 11.4679 9.90211 11.7129 9.18645C11.9544 9.07738 12.1591 8.90066 12.3022 8.67767C12.4453 8.45469 12.5207 8.195 12.5193 7.93004V6.5457C12.52 6.20958 12.3982 5.88473 12.1767 5.63195V3.79073C12.2441 2.97021 11.9833 2.15644 11.4514 1.52804C11.0003 1.08781 10.4592 0.750504 9.86532 0.539332C9.27143 0.328161 8.63886 0.248134 8.01109 0.304755C7.38389 0.24864 6.75197 0.328917 6.15872 0.540075C5.56547 0.751232 5.02494 1.08827 4.57423 1.52804C4.04243 2.1565 3.78159 2.97022 3.84894 3.79073V5.63537C3.62741 5.88816 3.50559 6.21301 3.50628 6.54913V7.93232C3.50617 8.13946 3.55272 8.34396 3.6425 8.53062C3.73227 8.71729 3.86296 8.88133 4.02484 9.01056C4.26362 9.91866 4.67592 10.772 5.23899 11.5234V12.6656C5.23839 12.8294 5.19376 12.9901 5.10977 13.1307C5.02577 13.2714 4.9055 13.3869 4.76155 13.4651L1.66507 15.1533C1.17237 15.4219 0.761043 15.8181 0.474258 16.3004C0.187472 16.7828 0.0357997 17.3334 0.0351562 17.8945V19.0173C0.0351562 20.6632 5.25155 21.0972 8.00881 21.0972C10.7661 21.0972 15.9825 20.6621 15.9825 19.0173V17.9619C15.9827 17.3824 15.821 16.8143 15.5157 16.3216C15.2103 15.829 14.7735 15.4315 14.2543 15.1738Z" fill="#425463"/>
</svg>
