<svg width="14" height="14" viewBox="0 0 14 14" fill="none" xmlns="http://www.w3.org/2000/svg">
<path d="M13.8304 13.0064L10.4644 9.64039C11.4239 8.46899 11.8962 6.97356 11.7837 5.46359C11.6712 3.95362 10.9825 2.54469 9.86005 1.5284C8.73763 0.512102 7.26745 -0.0337634 5.75376 0.00376774C4.24007 0.0412989 2.79874 0.659354 1.72807 1.73003C0.657401 2.8007 0.0393457 4.24202 0.00181462 5.75571C-0.0357165 7.26941 0.510149 8.73959 1.52644 9.86201C2.54274 10.9844 3.95166 11.6731 5.46163 11.7856C6.97161 11.8981 8.46704 11.4258 9.63844 10.4664L13.0014 13.8294C13.1106 13.9389 13.2588 14.0006 13.4134 14.0009C13.568 14.0012 13.7164 13.94 13.8259 13.8309C13.9355 13.7218 13.9972 13.5736 13.9974 13.419C13.9977 13.2643 13.9366 13.1159 13.8274 13.0064H13.8304ZM5.90144 10.6264C4.96657 10.626 4.05281 10.3484 3.2757 9.82871C2.49859 9.30901 1.89303 8.57056 1.53559 7.70672C1.17815 6.84288 1.08489 5.89245 1.26758 4.97561C1.45028 4.05876 1.90074 3.21668 2.56201 2.55584C3.22327 1.895 4.06564 1.44507 4.9826 1.26295C5.89955 1.08084 6.84993 1.17471 7.71354 1.53269C8.57715 1.89068 9.31522 2.49671 9.83442 3.27415C10.3536 4.05159 10.6306 4.96552 10.6304 5.90039C10.6288 7.15384 10.13 8.35545 9.24341 9.24149C8.35681 10.1275 7.15488 10.6256 5.90144 10.6264Z" fill="#92ABBD"/>
</svg>
