<svg width="30" height="30" viewBox="0 0 30 30" fill="none" xmlns="http://www.w3.org/2000/svg"><path d="M11.415 27.405C6.40799 27.405 2.45062 26.5302 0.557314 25.0054L0.520464 24.9756L0.487048 24.9422C0.0372948 24.4922 -0.110105 23.9019 0.0830712 23.3229L0.100695 23.2748C0.33507 22.6886 0.909334 22.294 1.53166 22.2904C2.81249 22.2682 3.93309 22.1155 4.95001 21.8191C3.32793 21.0647 2.20114 19.7585 1.53075 17.8679C1.3053 17.2783 1.49985 16.6246 2.01941 16.2349C2.14758 16.1385 2.29247 16.0657 2.44582 16.017C1.54448 14.9765 0.878664 13.7925 0.505816 12.5402L0.494143 12.5013L0.486132 12.4615C0.35956 11.8282 0.642687 11.177 1.16156 10.8966C1.37923 10.7717 1.61566 10.7069 1.85301 10.7014C1.59712 10.1503 1.41104 9.58446 1.30072 9.01523C0.994478 7.43778 1.24716 5.85643 2.05145 4.31514L2.23754 3.94298C2.38654 3.64521 2.67127 3.43601 2.99948 3.38268C3.3277 3.32958 3.66416 3.43807 3.89922 3.67313L4.23819 4.01256C6.91611 6.82003 9.31479 8.15212 13.4619 9.06353C13.6471 7.47165 14.3353 5.99193 15.4456 4.82738C16.767 3.44173 18.5314 2.66422 20.414 2.63767H20.4263C21.7998 2.63767 23.5036 3.42182 24.5341 3.9748C25.418 3.68549 26.483 3.23757 27.588 2.76401C28.1051 2.5214 28.7425 2.6324 29.149 3.0389C29.5475 3.43738 29.658 3.99929 29.4465 4.5454C29.3662 4.76902 29.2751 4.98851 29.1737 5.20321C29.325 5.27256 29.4635 5.36663 29.5804 5.48359C29.9341 5.83721 30.0815 6.39064 29.9558 6.89373L29.9423 6.94156C29.5189 8.30616 28.7054 9.41761 27.6297 10.1152C27.45 19.6827 20.2453 27.405 11.415 27.405ZM2.2444 24.0255C4.02854 25.0349 7.42857 25.6456 11.415 25.6456C15.2476 25.6456 18.8644 24.0001 21.5989 21.0123C24.3558 18 25.8739 13.9998 25.8739 9.74857V9.70073C25.8739 9.31575 26.0859 8.96442 26.4269 8.7836C27.1188 8.41716 27.6791 7.793 28.0435 6.99489C27.6677 7.05417 27.2857 6.90334 27.0515 6.58886C26.7794 6.22333 26.7764 5.72963 27.044 5.3609C27.1884 5.16178 27.3193 4.95464 27.436 4.74041C26.4818 5.14118 25.5757 5.50052 24.789 5.73925C24.5032 5.82576 24.1846 5.79189 23.9234 5.64609C22.5229 4.86583 21.2185 4.39937 20.432 4.39708C17.53 4.44149 15.1705 6.92691 15.1705 9.94037C15.1705 10.2519 15.0323 10.5439 14.7917 10.7419C14.5509 10.9397 14.2378 11.0189 13.932 10.9584C9.15022 10.0164 6.31667 8.6037 3.37004 5.64266C2.94776 6.65454 2.8324 7.67376 3.02764 8.68015C3.22562 9.69959 3.75227 10.7211 4.55084 11.6341C4.85434 11.9806 4.89462 12.4764 4.65109 12.8675C4.40848 13.2573 3.94728 13.4395 3.50394 13.3207C3.15741 13.2278 2.83881 13.1058 2.53668 12.949C3.15215 14.2859 4.21073 15.5223 5.54144 16.4342C5.92711 16.6986 6.08824 17.1913 5.93352 17.6326C5.77857 18.0746 5.34575 18.3591 4.87792 18.3243C4.3682 18.2865 3.91661 18.1897 3.50096 18.0265C4.24712 19.5461 5.43936 20.3822 7.27614 20.7017C7.71353 20.7779 8.05411 21.1233 8.12369 21.5612C8.1935 21.999 7.97675 22.433 7.58467 22.641C6.01912 23.471 4.308 23.9164 2.2444 24.0255Z" fill="white"/></svg>
