<svg xmlns="http://www.w3.org/2000/svg" width="16" height="10" viewBox="0 0 16 10"><path fill="#cbcbcb" d="M15.882 8.862a1.079 1.079 0 0 0-.054-.102c-.273-.493-.797-1.099-1.569-1.816l-.016-.017-.008-.008-.009-.008h-.008c-.35-.334-.572-.559-.665-.674-.17-.219-.208-.44-.116-.665.066-.17.313-.529.74-1.076.225-.29.403-.524.534-.699.948-1.26 1.358-2.065 1.232-2.415l-.049-.082c-.033-.05-.117-.095-.254-.136a1.294 1.294 0 0 0-.526-.02l-2.366.016a.307.307 0 0 0-.165.004l-.106.025-.042.02-.032.025a.365.365 0 0 0-.09.086.564.564 0 0 0-.083.144c-.257.663-.55 1.28-.879 1.849-.203.34-.389.634-.559.883a4.25 4.25 0 0 1-.427.55 2.981 2.981 0 0 1-.312.284c-.093.071-.164.101-.214.09a6.042 6.042 0 0 1-.14-.033.546.546 0 0 1-.184-.201.901.901 0 0 1-.095-.32 3.533 3.533 0 0 1-.024-.728c.005-.17.008-.284.008-.345 0-.208.004-.434.012-.678l.02-.579c.006-.142.009-.293.009-.452 0-.158-.01-.283-.029-.373a1.28 1.28 0 0 0-.086-.263.443.443 0 0 0-.168-.197.95.95 0 0 0-.275-.111 5.468 5.468 0 0 0-1.11-.107C6.76.722 6.104.788 5.814.93c-.115.06-.22.142-.312.246-.1.121-.113.187-.042.198.33.049.562.167.699.353l.049.099c.038.07.077.197.115.377.038.181.063.381.074.6.027.4.027.742 0 1.027a12.23 12.23 0 0 1-.078.666 1.333 1.333 0 0 1-.21.566.142.142 0 0 1-.04.041.616.616 0 0 1-.222.042c-.077 0-.17-.039-.28-.115a1.97 1.97 0 0 1-.34-.317 4.229 4.229 0 0 1-.4-.563 9.82 9.82 0 0 1-.46-.854l-.13-.238a20.486 20.486 0 0 1-.338-.67 12.916 12.916 0 0 1-.377-.85.541.541 0 0 0-.198-.263l-.04-.025a.873.873 0 0 0-.32-.123L.71 1.143c-.23 0-.386.052-.469.156l-.032.05a.266.266 0 0 0-.025.131c0 .06.016.134.05.222.328.772.685 1.517 1.071 2.235.386.717.722 1.295 1.007 1.733.284.438.575.852.87 1.24.296.39.492.639.588.748.096.11.171.192.226.247l.205.197c.132.131.325.289.58.472.254.184.536.365.846.543.31.178.67.323 1.08.435.411.112.81.158 1.2.136h.945c.191-.017.336-.077.435-.181l.033-.041a.544.544 0 0 0 .061-.152.835.835 0 0 0 .03-.226 2.707 2.707 0 0 1 .052-.637c.041-.188.088-.33.14-.427a1.05 1.05 0 0 1 .317-.361.533.533 0 0 1 .065-.029c.132-.044.286-.001.464.127.179.13.346.288.502.477.156.19.343.401.562.637.22.235.411.41.576.526l.164.098a2 2 0 0 0 .427.18.92.92 0 0 0 .46.042l2.103-.033c.208 0 .37-.034.485-.103.115-.068.183-.144.205-.226a.636.636 0 0 0 .005-.279 1.03 1.03 0 0 0-.058-.218z"/></svg>