<svg width="31" height="30" viewBox="0 0 31 30" fill="none" xmlns="http://www.w3.org/2000/svg">
    <path d="M20.2715 13.6525L13.4229 10.0261C13.0291 9.81755 12.5637 9.82534 12.1777 10.0467C11.7915 10.2682 11.5611 10.6596 11.5611 11.094V18.2846C11.5611 18.7169 11.7901 19.1076 12.1737 19.3294C12.374 19.4452 12.5961 19.5034 12.8186 19.5034C13.0225 19.5034 13.2269 19.4546 13.4149 19.3567L20.2637 15.7927C20.6703 15.581 20.9241 15.172 20.926 14.725C20.9276 14.278 20.6769 13.8672 20.2715 13.6525ZM13.3777 17.38V12.0059L18.4963 14.7163L13.3777 17.38Z"
          fill="white"/>
    <path d="M30.7719 8.99574L30.7705 8.98201C30.7442 8.74054 30.4829 6.59271 29.4039 5.50026C28.1568 4.21532 26.7429 4.05922 26.063 3.98438C26.0067 3.9782 25.9551 3.97247 25.909 3.96652L25.8548 3.96103C21.7566 3.67264 15.5673 3.63327 15.5054 3.63304L15.4999 3.63281L15.4945 3.63304C15.4325 3.63327 9.2433 3.67264 5.10815 3.96103L5.05352 3.96652C5.00952 3.97224 4.96104 3.97751 4.9083 3.98346C4.23614 4.05853 2.83741 4.21486 1.58675 5.54626C0.55911 6.62704 0.262053 8.72887 0.231544 8.96507L0.227996 8.99574C0.218772 9.09622 0 11.4883 0 13.8897V16.1346C0 18.536 0.218772 20.928 0.227996 21.0287L0.229652 21.0439C0.255904 21.2814 0.517012 23.3899 1.591 24.4828C2.76362 25.7247 4.24631 25.8891 5.04382 25.9774C5.16988 25.9914 5.27844 26.0033 5.35246 26.0159L5.42413 26.0255C7.79041 26.2434 15.2095 26.3507 15.5241 26.3551L15.5335 26.3553L15.543 26.3551C15.6049 26.3548 21.794 26.3155 25.8922 26.0271L25.9464 26.0216C25.9982 26.0149 26.0563 26.009 26.1202 26.0026C26.7886 25.9339 28.1797 25.7913 29.4131 24.478C30.4408 23.397 30.7381 21.2952 30.7683 21.0592L30.7719 21.0285C30.7811 20.9278 31.0001 18.536 31.0001 16.1346V13.8897C30.9999 11.4883 30.7811 9.09645 30.7719 8.99574ZM29.1832 16.1346C29.1832 18.3572 28.9827 20.6463 28.9638 20.8564C28.8867 21.4352 28.5733 22.765 28.0726 23.2917C27.3006 24.1136 26.5076 24.1951 25.9286 24.2544C25.8586 24.2615 25.7938 24.2683 25.7352 24.2754C21.7712 24.5528 15.8157 24.5954 15.5413 24.597C15.2336 24.5927 7.9231 24.4844 5.62895 24.2782C5.5114 24.2596 5.38439 24.2455 5.25053 24.2308C4.57151 24.1555 3.64202 24.0525 2.92729 23.2917L2.9105 23.2743C2.41855 22.7783 2.11417 21.5348 2.03683 20.8633C2.0224 20.7044 1.81664 18.3884 1.81664 16.1346V13.8897C1.81664 11.6695 2.01672 9.38301 2.03612 9.16855C2.12812 8.48671 2.44741 7.23747 2.92729 6.73256C3.72291 5.8857 4.56181 5.79185 5.11666 5.72983C5.16964 5.72388 5.21907 5.71838 5.26472 5.71266C9.28634 5.43388 15.2847 5.39246 15.4999 5.39085C15.7152 5.39223 21.7114 5.43388 25.6973 5.71266C25.7463 5.71861 25.7997 5.72456 25.8572 5.73097C26.4279 5.79391 27.2905 5.88913 28.0821 6.70624L28.0894 6.71379C28.5813 7.20978 28.8857 8.47504 28.9631 9.16008C28.9768 9.31 29.1832 11.6311 29.1832 13.8897V16.1346Z"
          fill="white"/>
</svg>
