<svg width="15" height="15" viewBox="0 0 15 15" fill="none" xmlns="http://www.w3.org/2000/svg">
<path d="M7.173 2.78868e-07C5.75416 0.000198054 4.36724 0.421114 3.18761 1.20952C2.00799 1.99793 1.08863 3.11843 0.545805 4.42932C0.00297475 5.74022 -0.138952 7.18264 0.137972 8.57419C0.414895 9.96574 1.09823 11.2439 2.10157 12.2471C3.10491 13.2503 4.3832 13.9335 5.77479 14.2102C7.16639 14.487 8.60879 14.3448 9.9196 13.8018C11.2304 13.2588 12.3508 12.3393 13.139 11.1596C13.9273 9.97982 14.348 8.59284 14.348 7.174C14.3481 6.23178 14.1626 5.29876 13.8021 4.42824C13.4415 3.55773 12.913 2.76678 12.2467 2.10057C11.5804 1.43436 10.7894 0.905956 9.91884 0.545534C9.04827 0.185112 8.11523 -0.000262444 7.173 2.78868e-07ZM10.258 9.117L9.114 10.258C8.50083 9.57802 7.85261 8.93048 7.172 8.318C6.49222 8.93066 5.84437 9.57785 5.231 10.257L4.088 9.117C4.77407 8.51063 5.42228 7.86275 6.029 7.177C5.42294 6.48969 4.77469 5.84077 4.088 5.234L5.231 4.09C5.231 4.09 7.054 6.03 7.172 6.03C7.29 6.03 9.114 4.09 9.114 4.09L10.257 5.234C9.57623 5.84735 8.92801 6.49591 8.315 7.177C8.315 7.305 10.257 9.117 10.257 9.117H10.258Z" fill="#FD8E52"/>
</svg>
