<svg width="50" height="50" viewBox="0 0 50 50" fill="none" xmlns="http://www.w3.org/2000/svg">
<path d="M25 50C38.8071 50 50 38.8071 50 25C50 11.1929 38.8071 0 25 0C11.1929 0 0 11.1929 0 25C0 38.8071 11.1929 50 25 50Z" fill="#00AA2B"/>
<path d="M30.681 21.7304L29.646 20.6954C29.5086 20.559 29.3227 20.4824 29.129 20.4824C28.9354 20.4824 28.7495 20.559 28.612 20.6954L23.623 25.6954L21.387 23.4494C21.3201 23.3803 21.2397 23.3257 21.1507 23.289C21.0618 23.2524 20.9662 23.2345 20.87 23.2364C20.7738 23.2345 20.6783 23.2524 20.5893 23.289C20.5004 23.3257 20.4199 23.3803 20.353 23.4494L19.318 24.4834C19.1819 24.621 19.1055 24.8068 19.1055 25.0004C19.1055 25.194 19.1819 25.3798 19.318 25.5174L22.071 28.2704L23.105 29.3084C23.2425 29.4448 23.4284 29.5214 23.622 29.5214C23.8157 29.5214 24.0016 29.4448 24.139 29.3084L25.173 28.2744L30.679 22.7684C30.8152 22.6308 30.8916 22.445 30.8916 22.2514C30.8916 22.0578 30.8152 21.872 30.679 21.7344L30.681 21.7304Z" fill="white"/>
</svg>
