<svg width="15" height="15" viewBox="0 0 15 15" fill="none" xmlns="http://www.w3.org/2000/svg">
<path d="M7.174 0.160156C5.75512 0.160156 4.3681 0.580904 3.18834 1.36919C2.00858 2.15748 1.08907 3.27791 0.546091 4.58879C0.00310838 5.89966 -0.138961 7.34211 0.13785 8.73373C0.41466 10.1254 1.09792 11.4036 2.10122 12.4069C3.10452 13.4102 4.38281 14.0935 5.77443 14.3703C7.16605 14.6471 8.6085 14.5051 9.91937 13.9621C11.2303 13.4191 12.3507 12.4996 13.139 11.3198C13.9273 10.1401 14.348 8.75304 14.348 7.33416C14.348 5.43149 13.5922 3.60676 12.2468 2.26137C10.9014 0.915986 9.07667 0.160156 7.174 0.160156V0.160156ZM5.858 11.0192L2.7 7.86016L3.752 6.80716L5.858 8.91316L10.6 4.17516L11.653 5.22816L5.858 11.0192Z" fill="#00AA2B"/>
</svg>
